Coordinates
version=1
nRows=22
nColumns=24
inDegrees=yes

Units are S.I. units (second, meters, Newtons, ...)
Angles are in degrees.

endheader
time	pelvis_tilt	pelvis_list	pelvis_rotation	pelvis_tx	pelvis_ty	pelvis_tz	hip_flexion_r	hip_adduction_r	hip_rotation_r	knee_angle_r	ankle_angle_r	subtalar_angle_r	mtp_angle_r	hip_flexion_l	hip_adduction_l	hip_rotation_l	knee_angle_l	ankle_angle_l	subtalar_angle_l	mtp_angle_l	lumbar_extension	lumbar_bending	lumbar_rotation
      0.84166667	      1.42812360	     -1.02654060	     -2.02089716	     -0.46486733	      1.07408770	      0.34951954	      6.48254398	      6.48256990	     -1.58233588	    -10.21353626	     -0.58650068	     -7.95744285	      7.05236752	     11.09434754	     -1.66809643	     -1.91843179	    -61.16687229	      0.30663468	     -9.17504875	     21.81894091	      2.34368143	      4.49776076	     -0.33005323
      0.84583333	      1.45500259	     -0.95216192	     -2.12750592	     -0.45985054	      1.07474797	      0.34981869	      6.09137558	      6.40590727	     -1.48762964	    -10.09865568	     -0.41168942	     -7.86825892	      7.05858799	     11.58436454	     -1.60222163	     -1.79485396	    -60.92493066	      0.88750111	     -9.88559383	     21.61165115	      2.28149465	      4.39577586	     -0.22247049
      0.85000000	      1.47937829	     -0.88205055	     -2.23821756	     -0.45482762	      1.07538413	      0.35011230	      5.70065248	      6.33248388	     -1.39407932	     -9.97974599	     -0.24028055	     -7.75433471	      7.06485249	     12.06168849	     -1.54139822	     -1.68012887	    -60.61897109	      1.36768142	    -10.50696972	     21.39974541	      2.21552049	      4.28478452	     -0.10148253
      0.85416667	      1.50565780	     -0.80670569	     -2.35269731	     -0.44982782	      1.07599993	      0.35040589	      5.30795518	      6.25369042	     -1.29821340	     -9.85059290	     -0.07294381	     -7.63732890	      7.07076617	     12.52260394	     -1.47231904	     -1.56187225	    -60.24497984	      1.81180668	    -11.04960756	     21.19651341	      2.15358706	      4.17227072	      0.02422132
      0.85833333	      1.54143243	     -0.73313881	     -2.48177633	     -0.44484497	      1.07661863	      0.35068212	      4.90638044	      6.17304301	     -1.20817602	     -9.72686218	      0.09973595	     -7.50953585	      7.07671891	     12.95411809	     -1.40409208	     -1.45511927	    -59.80512446	      2.23213485	    -11.54547731	     20.97542047	      2.07564591	      4.07421036	      0.16162399
      0.86250000	      1.56022419	     -0.66695203	     -2.61151771	     -0.43987003	      1.07717210	      0.35095401	      4.52216379	      6.10081158	     -1.11021512	     -9.59657558	      0.27199560	     -7.37793356	      7.08232634	     13.39250063	     -1.34541783	     -1.34895563	    -59.31112207	      2.61460937	    -11.95976258	     20.74312430	      2.00524506	      3.98169464	      0.30986456
      0.86666667	      1.68475857	     -0.57659672	     -2.82959563	     -0.43505602	      1.07786219	      0.35111255	      4.05706664	      5.97596300	     -1.02561405	     -9.52912069	      0.67220925	     -6.74236195	      7.10396908	     13.69006276	     -1.24695520	     -1.32450052	    -58.71728016	      2.68291341	    -12.56806230	     19.04392722	      1.62653732	      4.05458869	      1.09077156
      0.87083333	      1.68017272	     -0.52446018	     -2.90811630	     -0.42996236	      1.07834672	      0.35135898	      3.67151136	      5.92265310	     -0.98111405	     -9.34702812	      0.70505667	     -6.84529610	      7.10262147	     14.11699384	     -1.19888094	     -1.15842532	    -58.10686350	      3.11962479	    -12.69878585	     18.88244263	      1.73305911	      3.89210417	      1.09072044
      0.87500000	      1.66479879	     -0.48454230	     -3.03032079	     -0.42503316	      1.07875369	      0.35162472	      3.31306007	      5.88156548	     -0.83536166	     -9.18524733	      0.80018004	     -6.86830552	      7.10309924	     14.55254789	     -1.17066969	     -1.03308703	    -57.45785460	      3.50936413	    -12.83513593	     18.69752926	      1.70501219	      3.81537864	      1.09783418
      0.87916667	      1.63437277	     -0.44202678	     -3.14556133	     -0.42014913	      1.07910268	      0.35174561	      2.98400830	      5.82430758	     -0.76576212	     -9.04522771	      0.85491507	     -6.86391457	      7.10334703	     14.99494811	     -1.12464495	     -0.88118582	    -56.74499084	      3.66485506	    -12.88178897	     18.63333031	      1.62910759	      3.80849413	      1.10707316
      0.88333333	      1.66569898	     -0.41560099	     -3.27390170	     -0.41515212	      1.07953087	      0.35206801	      2.55064912	      5.80154291	     -0.59497605	     -8.83902544	      1.01632232	     -6.82653403	      7.10433900	     15.33285455	     -1.11688556	     -0.78025835	    -55.97093440	      4.04058181	    -13.02790277	     18.46121043	      1.66090140	      3.69002634	      1.18879307
      0.88750000	      1.62048852	     -0.39535768	     -3.39395962	     -0.41029039	      1.07977854	      0.35214131	      2.23482460	      5.76459075	     -0.52418244	     -8.69405377	      1.07783310	     -6.81103201	      7.10437541	     15.75943971	     -1.09254987	     -0.63054142	    -55.15784710	      4.17253833	    -13.05819597	     18.39951885	      1.56207256	      3.70469802	      1.20994504
      0.89166667	      1.67197299	     -0.38159240	     -3.53906607	     -0.40529511	      1.08018021	      0.35244177	      1.77075151	      5.74779156	     -0.32258963	     -8.47189596	      1.26101574	     -6.74842047	      7.10429620	     16.03595513	     -1.09850597	     -0.54461839	    -54.27056486	      4.47012866	    -13.14813193	     18.20101784	      1.57908774	      3.62199850	      1.34469619
      0.89583333	      1.61202498	     -0.37626267	     -3.65160657	     -0.40045925	      1.08033383	      0.35247750	      1.46767951	      5.72620478	     -0.25905202	     -8.31428073	      1.31810023	     -6.73371798	      7.10377521	     16.45001381	     -1.08669472	     -0.38995393	    -53.36104074	      4.56652086	    -13.16044345	     18.14060464	      1.47081006	      3.65370600	      1.37355341
      0.90000000	      1.64758077	     -0.38349585	     -3.77311753	     -0.39545553	      1.08063336	      0.35269967	      1.01179157	      5.72748013	     -0.07230080	     -8.07416595	      1.46796327	     -6.68523676	      7.10227467	     16.71322410	     -1.10596278	     -0.27859494	    -52.37277858	      4.72619020	    -13.20745145	     17.98168921	      1.51148960	      3.62699235	      1.50500606
      0.90416667	      1.67260454	     -0.38016896	     -3.92796159	     -0.39052239	      1.08088768	      0.35287308	      0.58352931	      5.70741597	      0.11333782	     -7.86256622	      1.61911578	     -6.64862668	      7.09756682	     16.96989565	     -1.11376374	     -0.19275989	    -51.32696613	      4.82159066	    -13.24844049	     17.74833173	      1.43979198	      3.61536220	      1.68653668
      0.90833333	      1.59447142	     -0.40851330	     -4.02434779	     -0.38571434	      1.08089645	      0.35283600	      0.29229221	      5.71810555	      0.17027881	     -7.68930945	      1.66538037	     -6.64140530	      7.09584866	     17.35750441	     -1.13229592	     -0.02272132	    -50.28265336	      4.88103928	    -13.26424665	     17.68424022	      1.32824350	      3.67464378	      1.71941255
      0.91250000	      1.74296791	     -0.39685724	     -4.27145071	     -0.38081652	      1.08128732	      0.35321400	     -0.27947438	      5.68375624	      0.51566419	     -7.45662505	      1.90824895	     -6.65796738	      7.06997350	     17.41748826	     -1.15889676	     -0.06622377	    -49.09040800	      4.74876151	    -13.49693184	     16.96025199	      1.06860631	      3.61077500	      2.25329990
      0.91666667	      1.63447174	     -0.48256266	     -4.17633704	     -0.37589655	      1.08115338	      0.35293153	     -0.58464717	      5.76278909	      0.44459531	     -7.17957972	      1.69841984	     -6.72468162	      6.93316243	     17.83427697	     -1.18637232	      0.29105620	    -47.98729740	      4.56459842	    -13.82233799	     14.04995509	      1.05032321	      3.86706790	      3.03931784
      0.92083333	      1.61654929	     -0.48992501	     -4.36575701	     -0.37087996	      1.08122640	      0.35308404	     -0.97114701	      5.74662025	      0.63604630	     -6.97425746	      1.90726559	     -6.70154795	      6.92968373	     18.04699947	     -1.21425041	      0.32284367	    -46.73946202	      4.67755260	    -13.76430086	     13.92894650	      1.17758402	      3.93954300	      2.91603535
      0.92500000	      1.56754913	     -0.53397703	     -4.45006353	     -0.36594491	      1.08116217	      0.35312445	     -1.33844240	      5.77787078	      0.80923061	     -6.72920372	      2.04144731	     -6.69185232	      6.92355641	     18.31275386	     -1.25737311	      0.46603405	    -45.49029284	      4.66045792	    -13.78946601	     13.79213971	      1.18087436	      3.94052210	      2.85024508
      0.92916667	      1.51776490	     -0.57802591	     -4.52446250	     -0.36098120	      1.08107002	      0.35311725	     -1.70332187	      5.80561097	      0.93957125	     -6.48776358	      2.14337045	     -6.71373480	      6.91564493	     18.55782707	     -1.29402144	      0.60893212	    -44.18621117	      4.57545693	    -13.89419730	     13.65059381	      1.20785062	      3.98830633	      2.81779654
